<?xml version="1.0" encoding="UTF-8" standalone="no"?>
<!-- Created by Makercase v3 -->

<svg
   width="59.00mm"
   height="310.00mm"
   viewBox="-29.5 -153.5 59.00 310.00"
   version="1.1"
   id="svg2"
   sodipodi:docname="box-back.svg"
   inkscape:version="1.4.3 (0d15f75, 2025-12-25)"
   xmlns:inkscape="http://www.inkscape.org/namespaces/inkscape"
   xmlns:sodipodi="http://sodipodi.sourceforge.net/DTD/sodipodi-0.dtd"
   xmlns="http://www.w3.org/2000/svg"
   xmlns:svg="http://www.w3.org/2000/svg">
  <defs
     id="defs2" />
  <sodipodi:namedview
     id="namedview2"
     pagecolor="#ffffff"
     bordercolor="#000000"
     borderopacity="0.25"
     inkscape:showpageshadow="2"
     inkscape:pageopacity="0.0"
     inkscape:pagecheckerboard="0"
     inkscape:deskcolor="#d1d1d1"
     inkscape:document-units="mm"
     inkscape:zoom="2.7072849"
     inkscape:cx="103.60934"
     inkscape:cy="34.536446"
     inkscape:window-width="1920"
     inkscape:window-height="958"
     inkscape:window-x="-8"
     inkscape:window-y="36"
     inkscape:window-maximized="1"
     inkscape:current-layer="svg2" />
  <g
     transform="matrix(1, 0, 0, -1, 0, 0)"
     id="g2">
    <path
       stroke="#ff0000"
       stroke-width="0.25"
       fill="none"
       d="m 21.5,-139.5 h 3 v 9 h -3 v 9 h 3 v 9 h -3 v 9 h 3 v 9 h -3 v 9 h 3 v 9 h -3 v 9 h 3 v 9 h -3 v 9 h 3 v 9 h -3 v 9 h 3 v 9 h -3 v 9 h 3 v 9 h -3 v 9 h 3 v 9 h -3 v 9 h 3 v 9 h -3 v 9 h 3 v 9 h -3 v 9 h 3 v 9 h -3 v 9 h 3 v 9 h -3 v 9 h 3 v 9 h -3 v 9 h 3 v 9 h -3 v 9 h 3 v 9 h -3 v 9 h -43 v -9 h -3 v -9 h 3 v -9 h -3 v -9 h 3 v -9 h -3 v -9 h 3 v -9 h -3 v -9 h 3 v -9 h -3 v -9 h 3 v -9 h -3 v -9 h 3 v -9 h -3 v -9 h 3 v -9 h -3 v -9 h 3 v -9 h -3 v -9 h 3 v -9 h -3 v -9 h 3 v -9 h -3 v -9 h 3 v -9 h -3 v -9 h 3 v -9 h -3 v -9 h 3 v -9 h -3 v -9 h 3 v -9 h -3 v -9 h 3 v -9 h -3 v -9 h 3 v -9 h -3 v -3 h 3 8 v 0 h 9 v 0 h 9 v 0 h 9 v 0 h 8 3 v 3 h -3 z"
       id="path1"
       sodipodi:nodetypes="ccccccccccccccccccccccccccccccccccccccccccccccccccccccccccccccccccccccccccccccccccccccccccccccccccccccccccccccccccccccccccccccccccccccccccccccccccc" />
    <path
       d="M -12.579 -4.134 L -13.515 -4.134 L -13.515 3.402 L -10.887 3.402 Q -9.597 3.402 -8.934 2.787 Q -8.271 2.172 -8.271 1.170 L -8.271 1.170 Q -8.271 0.180 -8.934 -0.435 Q -9.597 -1.050 -10.887 -1.050 L -10.887 -1.050 L -12.579 -1.050 L -12.579 -4.134 Z M -8.079 -4.134 L -9.291 -4.134 L -11.451 -0.714 L -10.431 -0.714 L -8.079 -4.134 Z M -12.579 2.598 L -12.579 -0.390 L -10.959 -0.390 Q -10.113 -0.390 -9.672 0.027 Q -9.231 0.444 -9.231 1.110 L -9.231 1.110 Q -9.231 1.794 -9.654 2.196 Q -10.077 2.598 -10.887 2.598 L -10.887 2.598 L -12.579 2.598 Z M -5.637 2.958 L -5.637 2.958 Q -5.925 2.958 -6.093 3.123 Q -6.261 3.288 -6.261 3.558 L -6.261 3.558 Q -6.261 3.822 -6.093 3.978 Q -5.925 4.134 -5.637 4.134 L -5.637 4.134 Q -5.349 4.134 -5.181 3.978 Q -5.013 3.822 -5.013 3.558 L -5.013 3.558 Q -5.013 3.288 -5.181 3.123 Q -5.349 2.958 -5.637 2.958 Z M -5.169 -4.134 L -6.105 -4.134 L -6.105 1.614 L -5.169 1.614 L -5.169 -4.134 Z M -0.561 -7.086 L -0.561 -7.086 Q -1.443 -7.086 -2.091 -6.837 Q -2.739 -6.588 -3.096 -6.171 Q -3.453 -5.754 -3.453 -5.250 L -3.453 -5.250 Q -3.453 -4.584 -2.964 -4.233 Q -2.475 -3.882 -1.701 -3.882 L -1.701 -3.882 L -1.185 -4.206 Q -1.833 -4.206 -2.187 -4.476 Q -2.541 -4.746 -2.541 -5.214 L -2.541 -5.214 Q -2.541 -5.682 -2.037 -6.006 Q -1.533 -6.330 -0.561 -6.330 L -0.561 -6.330 Q 0.159 -6.330 0.702 -6.123 Q 1.245 -5.916 1.548 -5.583 Q 1.851 -5.250 1.851 -4.866 L 1.851 -4.866 Q 1.851 -4.596 1.653 -4.401 Q 1.455 -4.206 1.047 -4.206 L 1.047 -4.206 L -1.185 -4.206 Q -1.767 -4.206 -2.190 -4.029 Q -2.613 -3.852 -2.841 -3.564 Q -3.069 -3.276 -3.069 -2.934 L -3.069 -2.934 Q -3.069 -2.574 -2.865 -2.322 Q -2.661 -2.070 -2.334 -1.938 Q -2.007 -1.806 -1.629 -1.806 L -1.629 -1.806 L -1.449 -2.154 Q -1.629 -2.154 -1.812 -2.235 Q -1.995 -2.316 -2.118 -2.475 Q -2.241 -2.634 -2.241 -2.874 L -2.241 -2.874 Q -2.241 -3.150 -2.013 -3.336 Q -1.785 -3.522 -1.185 -3.522 L -1.185 -3.522 L 1.047 -3.522 Q 1.857 -3.522 2.322 -3.864 Q 2.787 -4.206 2.787 -4.818 L 2.787 -4.818 Q 2.787 -5.382 2.385 -5.901 Q 1.983 -6.420 1.233 -6.753 Q 0.483 -7.086 -0.561 -7.086 Z M -0.393 -2.454 L -0.393 -2.454 Q -1.053 -2.454 -1.584 -2.190 Q -2.115 -1.926 -2.424 -1.452 Q -2.733 -0.978 -2.733 -0.354 L -2.733 -0.354 Q -2.733 0.276 -2.424 0.750 Q -2.115 1.224 -1.584 1.485 Q -1.053 1.746 -0.393 1.746 L -0.393 1.746 Q 0.249 1.746 0.774 1.485 Q 1.299 1.224 1.611 0.750 Q 1.923 0.276 1.923 -0.354 L 1.923 -0.354 Q 1.923 -0.978 1.611 -1.452 Q 1.299 -1.926 0.774 -2.190 Q 0.249 -2.454 -0.393 -2.454 Z M -0.393 -1.782 L -0.393 -1.782 Q 0.267 -1.782 0.633 -1.374 Q 0.999 -0.966 0.999 -0.354 L 0.999 -0.354 Q 0.999 0.276 0.633 0.669 Q 0.267 1.062 -0.393 1.062 L -0.393 1.062 Q -1.047 1.062 -1.422 0.669 Q -1.797 0.276 -1.797 -0.354 L -1.797 -0.354 Q -1.797 -0.966 -1.422 -1.374 Q -1.047 -1.782 -0.393 -1.782 Z M 1.491 0.834 L 1.491 0.834 L 1.047 1.014 Q 1.047 1.518 1.245 1.899 Q 1.443 2.280 1.809 2.493 Q 2.175 2.706 2.679 2.706 L 2.679 2.706 L 2.607 1.782 Q 2.067 1.782 1.779 1.551 Q 1.491 1.320 1.491 0.834 Z M 9.189 -4.134 L 8.265 -4.134 L 8.265 -0.762 Q 8.265 0.060 7.872 0.489 Q 7.479 0.918 6.801 0.918 L 6.801 0.918 Q 6.285 0.918 5.907 0.636 Q 5.529 0.354 5.325 -0.171 Q 5.121 -0.696 5.121 -1.422 L 5.121 -1.422 L 4.761 -1.422 Q 4.761 -0.420 5.025 0.288 Q 5.289 0.996 5.796 1.371 Q 6.303 1.746 7.029 1.746 L 7.029 1.746 Q 7.707 1.746 8.190 1.443 Q 8.673 1.140 8.931 0.576 Q 9.189 0.012 9.189 -0.762 L 9.189 -0.762 L 9.189 -4.134 Z M 5.121 -4.134 L 4.185 -4.134 L 4.185 4.050 L 5.121 4.050 L 5.121 -4.134 Z M 13.191 -4.278 L 13.191 -4.278 Q 12.723 -4.278 12.351 -4.098 Q 11.979 -3.918 11.763 -3.558 Q 11.547 -3.198 11.547 -2.658 L 11.547 -2.658 L 11.547 3.198 L 12.471 3.198 L 12.471 -2.634 Q 12.471 -3.522 13.299 -3.522 L 13.299 -3.522 Q 13.545 -3.522 13.776 -3.468 Q 14.007 -3.414 14.295 -3.306 L 14.295 -3.306 L 14.427 -3.978 Q 14.121 -4.110 13.818 -4.194 Q 13.515 -4.278 13.191 -4.278 Z M 14.283 0.954 L 10.623 0.954 L 10.623 1.602 L 14.283 1.602 L 14.283 0.954 Z"
       stroke="none"
       stroke-width="0.5"
       fill="#000000"
       id="path2" />
  </g>
</svg>
