<?xml version="1.0" encoding="UTF-8" standalone="no"?>
<!-- Created by Makercase v3 -->

<svg
   width="59.00mm"
   height="310.00mm"
   viewBox="-29.5 -153.5 59.00 310.00"
   version="1.1"
   id="svg2"
   sodipodi:docname="box-front.svg"
   inkscape:version="1.4.3 (0d15f75, 2025-12-25)"
   xmlns:inkscape="http://www.inkscape.org/namespaces/inkscape"
   xmlns:sodipodi="http://sodipodi.sourceforge.net/DTD/sodipodi-0.dtd"
   xmlns="http://www.w3.org/2000/svg"
   xmlns:svg="http://www.w3.org/2000/svg">
  <defs
     id="defs2" />
  <sodipodi:namedview
     id="namedview2"
     pagecolor="#ffffff"
     bordercolor="#000000"
     borderopacity="0.25"
     inkscape:showpageshadow="2"
     inkscape:pageopacity="0.0"
     inkscape:pagecheckerboard="0"
     inkscape:deskcolor="#d1d1d1"
     inkscape:document-units="mm"
     inkscape:zoom="0.59403226"
     inkscape:cx="111.94678"
     inkscape:cy="584.98507"
     inkscape:window-width="1920"
     inkscape:window-height="958"
     inkscape:window-x="-8"
     inkscape:window-y="36"
     inkscape:window-maximized="1"
     inkscape:current-layer="svg2" />
  <g
     transform="matrix(1, 0, 0, -1, 0, 0)"
     id="g2">
    <path
       stroke="#ff0000"
       stroke-width="0.25"
       fill="none"
       d="M-21.500 -148.500 L-21.500 -151.500 -13.500 -151.500 -13.500 -148.500 -4.500 -148.500 -4.500 -151.500 4.500 -151.500 4.500 -148.500 13.500 -148.500 13.500 -151.500 21.500 -151.500 21.500 -148.500 24.500 -148.500 24.500 -139.500 21.500 -139.500 21.500 -130.500 24.500 -130.500 24.500 -121.500 21.500 -121.500 21.500 -112.500 24.500 -112.500 24.500 -103.500 21.500 -103.500 21.500 -94.500 24.500 -94.500 24.500 -85.500 21.500 -85.500 21.500 -76.500 24.500 -76.500 24.500 -67.500 21.500 -67.500 21.500 -58.500 24.500 -58.500 24.500 -49.500 21.500 -49.500 21.500 -40.500 24.500 -40.500 24.500 -31.500 21.500 -31.500 21.500 -22.500 24.500 -22.500 24.500 -13.500 21.500 -13.500 21.500 -4.500 24.500 -4.500 24.500 4.500 21.500 4.500 21.500 13.500 24.500 13.500 24.500 22.500 21.500 22.500 21.500 31.500 24.500 31.500 24.500 40.500 21.500 40.500 21.500 49.500 24.500 49.500 24.500 58.500 21.500 58.500 21.500 67.500 24.500 67.500 24.500 76.500 21.500 76.500 21.500 85.500 24.500 85.500 24.500 94.500 21.500 94.500 21.500 103.500 24.500 103.500 24.500 112.500 21.500 112.500 21.500 121.500 24.500 121.500 24.500 130.500 21.500 130.500 21.500 139.500 24.500 139.500 24.500 148.500 21.500 148.500 -21.500 148.500 -24.500 148.500 -24.500 139.500 -21.500 139.500 -21.500 130.500 -24.500 130.500 -24.500 121.500 -21.500 121.500 -21.500 112.500 -24.500 112.500 -24.500 103.500 -21.500 103.500 -21.500 94.500 -24.500 94.500 -24.500 85.500 -21.500 85.500 -21.500 76.500 -24.500 76.500 -24.500 67.500 -21.500 67.500 -21.500 58.500 -24.500 58.500 -24.500 49.500 -21.500 49.500 -21.500 40.500 -24.500 40.500 -24.500 31.500 -21.500 31.500 -21.500 22.500 -24.500 22.500 -24.500 13.500 -21.500 13.500 -21.500 4.500 -24.500 4.500 -24.500 -4.500 -21.500 -4.500 -21.500 -13.500 -24.500 -13.500 -24.500 -22.500 -21.500 -22.500 -21.500 -31.500 -24.500 -31.500 -24.500 -40.500 -21.500 -40.500 -21.500 -49.500 -24.500 -49.500 -24.500 -58.500 -21.500 -58.500 -21.500 -67.500 -24.500 -67.500 -24.500 -76.500 -21.500 -76.500 -21.500 -85.500 -24.500 -85.500 -24.500 -94.500 -21.500 -94.500 -21.500 -103.500 -24.500 -103.500 -24.500 -112.500 -21.500 -112.500 -21.500 -121.500 -24.500 -121.500 -24.500 -130.500 -21.500 -130.500 -21.500 -139.500 -24.500 -139.500 -24.500 -148.500 Z"
       id="path1" />
    <path
       d="M -12.321 -3.768 L -13.257 -3.768 L -13.257 3.768 L -8.673 3.768 L -8.673 2.964 L -12.321 2.964 L -12.321 0.456 L -8.925 0.456 L -8.925 -0.348 L -12.321 -0.348 L -12.321 -3.768 Z M -6.033 -3.768 L -6.969 -3.768 L -6.969 1.980 L -6.033 1.980 L -6.033 -3.768 Z M -6.033 -1.176 L -6.321 -1.176 Q -6.321 -0.084 -6.111 0.639 Q -5.901 1.362 -5.496 1.719 Q -5.091 2.076 -4.509 2.076 L -4.509 2.076 Q -4.317 2.076 -4.158 2.049 Q -3.999 2.022 -3.837 1.968 L -3.837 1.968 L -3.897 1.044 Q -4.065 1.098 -4.263 1.137 Q -4.461 1.176 -4.617 1.176 L -4.617 1.176 Q -5.127 1.176 -5.439 0.885 Q -5.751 0.594 -5.892 0.066 Q -6.033 -0.462 -6.033 -1.176 L -6.033 -1.176 Z M -0.555 -3.912 L -0.555 -3.912 Q -1.329 -3.912 -1.932 -3.570 Q -2.535 -3.228 -2.883 -2.556 Q -3.231 -1.884 -3.231 -0.900 L -3.231 -0.900 Q -3.231 0.090 -2.883 0.759 Q -2.535 1.428 -1.932 1.770 Q -1.329 2.112 -0.555 2.112 L -0.555 2.112 Q 0.213 2.112 0.816 1.770 Q 1.419 1.428 1.764 0.759 Q 2.109 0.090 2.109 -0.900 L 2.109 -0.900 Q 2.109 -1.884 1.764 -2.556 Q 1.419 -3.228 0.816 -3.570 Q 0.213 -3.912 -0.555 -3.912 Z M -0.579 -3.096 L -0.579 -3.096 Q -0.021 -3.096 0.369 -2.829 Q 0.759 -2.562 0.960 -2.070 Q 1.161 -1.578 1.161 -0.900 L 1.161 -0.900 Q 1.161 0.126 0.735 0.717 Q 0.309 1.308 -0.531 1.308 L -0.531 1.308 Q -1.095 1.308 -1.482 1.041 Q -1.869 0.774 -2.070 0.279 Q -2.271 -0.216 -2.271 -0.900 L -2.271 -0.900 Q -2.271 -1.914 -1.842 -2.505 Q -1.413 -3.096 -0.579 -3.096 Z M 8.931 -3.768 L 8.007 -3.768 L 8.007 -0.396 Q 8.007 0.426 7.614 0.855 Q 7.221 1.284 6.543 1.284 L 6.543 1.284 Q 6.027 1.284 5.649 1.002 Q 5.271 0.720 5.067 0.195 Q 4.863 -0.330 4.863 -1.056 L 4.863 -1.056 L 4.503 -1.056 Q 4.503 -0.054 4.767 0.654 Q 5.031 1.362 5.538 1.737 Q 6.045 2.112 6.771 2.112 L 6.771 2.112 Q 7.449 2.112 7.932 1.809 Q 8.415 1.506 8.673 0.942 Q 8.931 0.378 8.931 -0.396 L 8.931 -0.396 L 8.931 -3.768 Z M 4.863 -3.768 L 3.927 -3.768 L 3.927 1.968 L 4.731 1.968 L 4.863 0.648 L 4.863 -3.768 Z M 12.933 -3.912 L 12.933 -3.912 Q 12.465 -3.912 12.093 -3.732 Q 11.721 -3.552 11.505 -3.192 Q 11.289 -2.832 11.289 -2.292 L 11.289 -2.292 L 11.289 3.564 L 12.213 3.564 L 12.213 -2.268 Q 12.213 -3.156 13.041 -3.156 L 13.041 -3.156 Q 13.287 -3.156 13.518 -3.102 Q 13.749 -3.048 14.037 -2.940 L 14.037 -2.940 L 14.169 -3.612 Q 13.863 -3.744 13.560 -3.828 Q 13.257 -3.912 12.933 -3.912 Z M 14.025 1.320 L 10.365 1.320 L 10.365 1.968 L 14.025 1.968 L 14.025 1.320 Z"
       stroke="none"
       stroke-width="0.5"
       fill="#000000"
       id="path2" />
  </g>
</svg>
