<?xml version="1.0" encoding="UTF-8" standalone="no"?>
<!-- Created by Makercase v3 -->

<svg
   width="410.00mm"
   height="310.00mm"
   viewBox="-205 -153.5 410.00 310.00"
   version="1.1"
   id="svg2"
   sodipodi:docname="box-left.svg"
   inkscape:version="1.4.3 (0d15f75, 2025-12-25)"
   xmlns:inkscape="http://www.inkscape.org/namespaces/inkscape"
   xmlns:sodipodi="http://sodipodi.sourceforge.net/DTD/sodipodi-0.dtd"
   xmlns="http://www.w3.org/2000/svg"
   xmlns:svg="http://www.w3.org/2000/svg">
  <defs
     id="defs2" />
  <sodipodi:namedview
     id="namedview2"
     pagecolor="#ffffff"
     bordercolor="#000000"
     borderopacity="0.25"
     inkscape:showpageshadow="2"
     inkscape:pageopacity="0.0"
     inkscape:pagecheckerboard="0"
     inkscape:deskcolor="#d1d1d1"
     inkscape:document-units="mm"
     inkscape:zoom="0.19230691"
     inkscape:cx="772.20314"
     inkscape:cy="169.00069"
     inkscape:window-width="1920"
     inkscape:window-height="958"
     inkscape:window-x="-8"
     inkscape:window-y="36"
     inkscape:window-maximized="1"
     inkscape:current-layer="svg2" />
  <g
     transform="matrix(1, 0, 0, -1, 0, 0)"
     id="g2">
    <path
       stroke="#ff0000"
       stroke-width="0.25"
       fill="none"
       d="M197.000 -139.500 L200.000 -139.500 200.000 -130.500 197.000 -130.500 197.000 -121.500 200.000 -121.500 200.000 -112.500 197.000 -112.500 197.000 -103.500 200.000 -103.500 200.000 -94.500 197.000 -94.500 197.000 -85.500 200.000 -85.500 200.000 -76.500 197.000 -76.500 197.000 -67.500 200.000 -67.500 200.000 -58.500 197.000 -58.500 197.000 -49.500 200.000 -49.500 200.000 -40.500 197.000 -40.500 197.000 -31.500 200.000 -31.500 200.000 -22.500 197.000 -22.500 197.000 -13.500 200.000 -13.500 200.000 -4.500 197.000 -4.500 197.000 4.500 200.000 4.500 200.000 13.500 197.000 13.500 197.000 22.500 200.000 22.500 200.000 31.500 197.000 31.500 197.000 40.500 200.000 40.500 200.000 49.500 197.000 49.500 197.000 58.500 200.000 58.500 200.000 67.500 197.000 67.500 197.000 76.500 200.000 76.500 200.000 85.500 197.000 85.500 197.000 94.500 200.000 94.500 200.000 103.500 197.000 103.500 197.000 112.500 200.000 112.500 200.000 121.500 197.000 121.500 197.000 130.500 200.000 130.500 200.000 139.500 197.000 139.500 197.000 148.500 -197.000 148.500 -197.000 139.500 -200.000 139.500 -200.000 130.500 -197.000 130.500 -197.000 121.500 -200.000 121.500 -200.000 112.500 -197.000 112.500 -197.000 103.500 -200.000 103.500 -200.000 94.500 -197.000 94.500 -197.000 85.500 -200.000 85.500 -200.000 76.500 -197.000 76.500 -197.000 67.500 -200.000 67.500 -200.000 58.500 -197.000 58.500 -197.000 49.500 -200.000 49.500 -200.000 40.500 -197.000 40.500 -197.000 31.500 -200.000 31.500 -200.000 22.500 -197.000 22.500 -197.000 13.500 -200.000 13.500 -200.000 4.500 -197.000 4.500 -197.000 -4.500 -200.000 -4.500 -200.000 -13.500 -197.000 -13.500 -197.000 -22.500 -200.000 -22.500 -200.000 -31.500 -197.000 -31.500 -197.000 -40.500 -200.000 -40.500 -200.000 -49.500 -197.000 -49.500 -197.000 -58.500 -200.000 -58.500 -200.000 -67.500 -197.000 -67.500 -197.000 -76.500 -200.000 -76.500 -200.000 -85.500 -197.000 -85.500 -197.000 -94.500 -200.000 -94.500 -200.000 -103.500 -197.000 -103.500 -197.000 -112.500 -200.000 -112.500 -200.000 -121.500 -197.000 -121.500 -197.000 -130.500 -200.000 -130.500 -200.000 -139.500 -197.000 -139.500 -197.000 -148.500 -200.000 -148.500 -200.000 -151.500 -197.000 -151.500 -193.500 -151.500 -193.500 -148.500 -184.500 -148.500 -184.500 -151.500 -175.500 -151.500 -175.500 -148.500 -166.500 -148.500 -166.500 -151.500 -157.500 -151.500 -157.500 -148.500 -148.500 -148.500 -148.500 -151.500 -139.500 -151.500 -139.500 -148.500 -130.500 -148.500 -130.500 -151.500 -121.500 -151.500 -121.500 -148.500 -112.500 -148.500 -112.500 -151.500 -103.500 -151.500 -103.500 -148.500 -94.500 -148.500 -94.500 -151.500 -85.500 -151.500 -85.500 -148.500 -76.500 -148.500 -76.500 -151.500 -67.500 -151.500 -67.500 -148.500 -58.500 -148.500 -58.500 -151.500 -49.500 -151.500 -49.500 -148.500 -40.500 -148.500 -40.500 -151.500 -31.500 -151.500 -31.500 -148.500 -22.500 -148.500 -22.500 -151.500 -13.500 -151.500 -13.500 -148.500 -4.500 -148.500 -4.500 -151.500 4.500 -151.500 4.500 -148.500 13.500 -148.500 13.500 -151.500 22.500 -151.500 22.500 -148.500 31.500 -148.500 31.500 -151.500 40.500 -151.500 40.500 -148.500 49.500 -148.500 49.500 -151.500 58.500 -151.500 58.500 -148.500 67.500 -148.500 67.500 -151.500 76.500 -151.500 76.500 -148.500 85.500 -148.500 85.500 -151.500 94.500 -151.500 94.500 -148.500 103.500 -148.500 103.500 -151.500 112.500 -151.500 112.500 -148.500 121.500 -148.500 121.500 -151.500 130.500 -151.500 130.500 -148.500 139.500 -148.500 139.500 -151.500 148.500 -151.500 148.500 -148.500 157.500 -148.500 157.500 -151.500 166.500 -151.500 166.500 -148.500 175.500 -148.500 175.500 -151.500 184.500 -151.500 184.500 -148.500 193.500 -148.500 193.500 -151.500 197.000 -151.500 200.000 -151.500 200.000 -148.500 197.000 -148.500 Z"
       id="path1" />
    <path
       d="M -8.985 3.402 L -8.049 3.402 L -8.049 -3.318 L -4.689 -3.318 L -4.689 -4.134 L -8.985 -4.134 L -8.985 3.402 Z M -1.383 -4.278 L -1.383 -4.278 Q -2.127 -4.278 -2.712 -3.897 Q -3.297 -3.516 -3.636 -2.838 Q -3.975 -2.160 -3.975 -1.278 L -3.975 -1.278 Q -3.975 -0.336 -3.639 0.342 Q -3.303 1.020 -2.718 1.383 Q -2.133 1.746 -1.383 1.746 L -1.383 1.746 Q -0.729 1.746 -0.267 1.482 Q 0.195 1.218 0.477 0.768 Q 0.759 0.318 0.870 -0.249 Q 0.981 -0.816 0.933 -1.422 L 0.933 -1.422 L -3.219 -1.422 L -3.219 -0.846 L 0.315 -0.846 L 0.039 -1.026 Q 0.057 -0.672 -0.000 -0.318 Q -0.057 0.036 -0.213 0.333 Q -0.369 0.630 -0.651 0.810 Q -0.933 0.990 -1.371 0.990 L -1.371 0.990 Q -1.923 0.990 -2.295 0.708 Q -2.667 0.426 -2.853 -0.033 Q -3.039 -0.492 -3.039 -1.026 L -3.039 -1.026 L -3.039 -1.410 Q -3.039 -2.010 -2.856 -2.484 Q -2.673 -2.958 -2.307 -3.234 Q -1.941 -3.510 -1.383 -3.510 L -1.383 -3.510 Q -0.825 -3.510 -0.465 -3.240 Q -0.105 -2.970 -0.027 -2.442 L -0.027 -2.442 L 0.945 -2.442 Q 0.855 -3.012 0.537 -3.423 Q 0.219 -3.834 -0.273 -4.056 Q -0.765 -4.278 -1.383 -4.278 Z M 4.035 -4.134 L 3.099 -4.134 L 3.099 2.490 Q 3.099 3.060 3.318 3.423 Q 3.537 3.786 3.906 3.960 Q 4.275 4.134 4.731 4.134 L 4.731 4.134 Q 4.977 4.134 5.232 4.098 Q 5.487 4.062 5.739 3.990 L 5.739 3.990 L 5.559 3.246 Q 5.379 3.318 5.202 3.354 Q 5.025 3.390 4.863 3.390 L 4.863 3.390 Q 4.671 3.390 4.479 3.318 Q 4.287 3.246 4.161 3.048 Q 4.035 2.850 4.035 2.478 L 4.035 2.478 L 4.035 -4.134 Z M 5.223 0.954 L 2.163 0.954 L 2.163 1.602 L 5.223 1.602 L 5.223 0.954 Z M 8.661 -4.278 L 8.661 -4.278 Q 8.193 -4.278 7.821 -4.098 Q 7.449 -3.918 7.233 -3.558 Q 7.017 -3.198 7.017 -2.658 L 7.017 -2.658 L 7.017 3.198 L 7.941 3.198 L 7.941 -2.634 Q 7.941 -3.522 8.769 -3.522 L 8.769 -3.522 Q 9.015 -3.522 9.246 -3.468 Q 9.477 -3.414 9.765 -3.306 L 9.765 -3.306 L 9.897 -3.978 Q 9.591 -4.110 9.288 -4.194 Q 8.985 -4.278 8.661 -4.278 Z M 9.753 0.954 L 6.093 0.954 L 6.093 1.602 L 9.753 1.602 L 9.753 0.954 Z"
       stroke="none"
       stroke-width="0.5"
       fill="#000000"
       id="path2" />
  </g>
</svg>
